<svg width="180" height="180" viewBox="0 0 180 180" fill="none" xmlns="http://www.w3.org/2000/svg">
<rect width="180" height="180" fill="white"/>
<path d="M158.377 94.6128H145.782C146.167 97.4082 147.967 99.047 150.666 99.047C152.626 99.047 153.911 98.1794 154.554 96.7335H158.024C157.028 100.043 154.232 101.875 150.537 101.875C145.975 101.875 142.633 98.4365 142.633 93.5203C142.633 88.6041 145.975 85.166 150.537 85.166C155.1 85.166 158.442 88.6041 158.442 93.5203C158.442 93.9059 158.41 94.2593 158.377 94.6128ZM150.537 87.9936C147.935 87.9936 146.199 89.6002 145.814 92.2993H155.261C154.875 89.6002 153.108 87.9936 150.537 87.9936Z" fill="black"/>
<path d="M136.013 92.7813C136.013 89.6002 134.534 87.9936 132.125 87.9936C129.715 87.9936 128.237 89.6002 128.237 92.7813V101.553H125.023V85.4873H128.237V88.0257C129.233 86.1621 131 85.166 133.121 85.166C136.623 85.166 139.226 87.4152 139.226 92.1386V101.553H136.013V92.7813Z" fill="black"/>
<path d="M118.66 81.9864C117.439 81.9864 116.539 81.0546 116.539 79.8336C116.539 78.6126 117.439 77.7129 118.66 77.7129C119.913 77.7129 120.78 78.6126 120.78 79.8336C120.78 81.0546 119.913 81.9864 118.66 81.9864ZM120.266 101.555H117.053V85.4888H120.266V101.555Z" fill="black"/>
<path d="M113.753 101.554H100.836V97.8912L109.993 88.3159H100.997V85.4883H113.11V89.1513L103.953 98.7266H113.753V101.554Z" fill="black"/>
<path d="M88.9233 101.875C86.0636 101.875 83.4609 100.493 83.4609 97.3118C83.4609 90.3714 94.2894 93.8416 94.2894 90.1786C94.2894 88.6041 92.7792 87.7366 90.8191 87.7366C88.7306 87.7366 87.2846 88.7969 87.2846 90.8855H83.9429C83.9429 86.7405 87.2846 85.166 90.8191 85.166C94.2894 85.166 97.5025 86.5798 97.5025 90.3071V101.553H94.3536V98.8542C93.2933 100.975 91.2368 101.875 88.9233 101.875ZM86.7384 97.1191C86.7384 98.5007 87.9273 99.1755 89.566 99.1755C92.0401 99.1755 94.3536 97.7296 94.3536 94.9341V93.7773C91.6224 95.0947 86.7384 94.42 86.7384 97.1191Z" fill="black"/>
<path d="M71.0476 101.875C66.6455 101.875 63.3359 98.4365 63.3359 93.5203C63.3359 88.6041 66.6455 85.166 71.0476 85.166C73.2004 85.166 75.0641 86.1942 76.3172 87.8972V85.4873H79.5304V101.682C79.5304 106.566 76.028 109.908 71.6259 109.908C67.4167 109.908 64.2999 107.112 63.7215 102.967H66.9668C67.3845 105.377 69.1197 106.951 71.6259 106.951C74.5821 106.951 76.3172 104.766 76.3172 101.682V99.1434C75.0641 100.846 73.2004 101.875 71.0476 101.875ZM71.4332 98.9184C74.2286 98.9184 76.3172 96.7656 76.3172 93.5203C76.3172 90.275 74.2286 88.1221 71.4332 88.1221C68.6377 88.1221 66.5491 90.275 66.5491 93.5203C66.5491 96.7656 68.6377 98.9184 71.4332 98.9184Z" fill="black"/>
<path d="M51.4858 101.875C48.6261 101.875 46.0234 100.493 46.0234 97.3118C46.0234 90.3714 56.8519 93.8416 56.8519 90.1786C56.8519 88.6041 55.3417 87.7366 53.3816 87.7366C51.2931 87.7366 49.8471 88.7969 49.8471 90.8855H46.5054C46.5054 86.7405 49.8471 85.166 53.3816 85.166C56.8519 85.166 60.065 86.5798 60.065 90.3071V101.553H56.9161V98.8542C55.8558 100.975 53.7993 101.875 51.4858 101.875ZM49.3009 97.1191C49.3009 98.5007 50.4898 99.1755 52.1285 99.1755C54.6026 99.1755 56.9161 97.7296 56.9161 94.9341V93.7773C54.1849 95.0947 49.3009 94.42 49.3009 97.1191Z" fill="black"/>
<path d="M34.0163 101.554H30.1283L25.2764 79.7686V101.554H22.3203V77.4551H27.8149L32.2169 97.3125L36.5226 77.4551H42.1135V101.554H38.9003V79.865L34.0163 101.554Z" fill="black"/>
</svg>
